<mxfile host="app.diagrams.net" modified="2022-01-24T12:42:18.378Z" agent="5.0 (Windows NT 10.0; Win64; x64) AppleWebKit/537.36 (KHTML, like Gecko) Chrome/97.0.4692.99 Safari/537.36" etag="QxUYZIgPNaIpj9Ywz5if" version="16.4.5" type="gitlab">
  <diagram id="i3_nHU3DD3lF7xoDMfsA" name="Page-1">
    <mxGraphModel dx="782" dy="411" grid="1" gridSize="10" guides="1" tooltips="1" connect="1" arrows="1" fold="1" page="1" pageScale="1" pageWidth="850" pageHeight="1100" math="0" shadow="0">
      <root>
        <mxCell id="0" />
        <mxCell id="1" parent="0" />
        <mxCell id="5FxgzG87OndFt6VdIlo1-1" value="" style="rounded=0;whiteSpace=wrap;html=1;" vertex="1" parent="1">
          <mxGeometry x="40" y="10" width="720" height="470" as="geometry" />
        </mxCell>
        <mxCell id="5FxgzG87OndFt6VdIlo1-2" value="" style="rounded=0;whiteSpace=wrap;html=1;" vertex="1" parent="1">
          <mxGeometry x="40" width="720" height="70" as="geometry" />
        </mxCell>
        <mxCell id="5FxgzG87OndFt6VdIlo1-3" value="Login" style="text;strokeColor=none;fillColor=none;align=left;verticalAlign=middle;spacingLeft=4;spacingRight=4;overflow=hidden;points=[[0,0.5],[1,0.5]];portConstraint=eastwest;rotatable=0;" vertex="1" parent="1">
          <mxGeometry x="670" y="25" width="80" height="30" as="geometry" />
        </mxCell>
        <mxCell id="5FxgzG87OndFt6VdIlo1-4" value="About" style="text;strokeColor=none;fillColor=none;align=left;verticalAlign=middle;spacingLeft=4;spacingRight=4;overflow=hidden;points=[[0,0.5],[1,0.5]];portConstraint=eastwest;rotatable=0;" vertex="1" parent="1">
          <mxGeometry x="590" y="25" width="80" height="30" as="geometry" />
        </mxCell>
        <mxCell id="5FxgzG87OndFt6VdIlo1-5" value="" style="rounded=0;whiteSpace=wrap;html=1;" vertex="1" parent="1">
          <mxGeometry x="170" y="140" width="440" height="130" as="geometry" />
        </mxCell>
        <mxCell id="5FxgzG87OndFt6VdIlo1-6" value="Description of what our project is about:" style="text;strokeColor=none;fillColor=none;align=left;verticalAlign=middle;spacingLeft=4;spacingRight=4;overflow=hidden;points=[[0,0.5],[1,0.5]];portConstraint=eastwest;rotatable=0;" vertex="1" parent="1">
          <mxGeometry x="170" y="140" width="440" height="30" as="geometry" />
        </mxCell>
        <mxCell id="5FxgzG87OndFt6VdIlo1-7" value="Ball Recognisers" style="text;strokeColor=none;fillColor=none;align=left;verticalAlign=middle;spacingLeft=4;spacingRight=4;overflow=hidden;points=[[0,0.5],[1,0.5]];portConstraint=eastwest;rotatable=0;" vertex="1" parent="1">
          <mxGeometry x="50" y="20" width="150" height="30" as="geometry" />
        </mxCell>
        <mxCell id="5FxgzG87OndFt6VdIlo1-8" value="" style="rounded=0;whiteSpace=wrap;html=1;" vertex="1" parent="1">
          <mxGeometry x="40" y="420" width="720" height="60" as="geometry" />
        </mxCell>
        <mxCell id="5FxgzG87OndFt6VdIlo1-9" value="&lt;span style=&quot;font-family: , , &amp;#34;segoe ui&amp;#34; , &amp;#34;roboto&amp;#34; , &amp;#34;helvetica neue&amp;#34; , &amp;#34;arial&amp;#34; , &amp;#34;noto sans&amp;#34; , &amp;#34;liberation sans&amp;#34; , sans-serif , &amp;#34;apple color emoji&amp;#34; , &amp;#34;segoe ui emoji&amp;#34; , &amp;#34;segoe ui symbol&amp;#34; , &amp;#34;noto color emoji&amp;#34; ; font-size: 16px&quot;&gt;Copyright Â© 2021. Joshua &amp;amp; Ethan @ DAAA/2B/03&lt;/span&gt;" style="text;html=1;strokeColor=none;fillColor=none;align=center;verticalAlign=middle;whiteSpace=wrap;rounded=0;" vertex="1" parent="1">
          <mxGeometry x="90" y="435" width="650" height="30" as="geometry" />
        </mxCell>
      </root>
    </mxGraphModel>
  </diagram>
</mxfile>
